<?xml version="1.0" standalone="no"?>
<!DOCTYPE svg PUBLIC "-//W3C//DTD SVG 1.1//EN" "http://www.w3.org/Graphics/SVG/1.1/DTD/svg11.dtd" >
<svg xmlns="http://www.w3.org/2000/svg" xmlns:xlink="http://www.w3.org/1999/xlink" version="1.1">
<metadata></metadata>
<defs>
<font id="01_digitgraphicsregular" horiz-adv-x="1492" >
<font-face units-per-em="2048" ascent="1706" descent="-342" />
<missing-glyph horiz-adv-x="245" />
<glyph horiz-adv-x="0" />
<glyph unicode="&#xd;" horiz-adv-x="245" />
<glyph unicode=" "  horiz-adv-x="245" />
<glyph unicode="&#x09;" horiz-adv-x="245" />
<glyph unicode="&#xa0;" horiz-adv-x="245" />
<glyph unicode="!" horiz-adv-x="491" d="M164 479v815q0 51 36 87t87 36t87 -35.5t36 -87.5v-815q0 -55 -36 -90t-87 -35t-87 35t-36 90zM174 106q0 47 33 80t80 33t79.5 -32.5t32.5 -80.5q0 -47 -32.5 -79.5t-79.5 -32.5t-80 32.5t-33 79.5zM176 106q0 -47 32 -78.5t79 -31.5t78.5 31.5t31.5 78.5t-31.5 79 t-78.5 32t-79 -31.5t-32 -79.5zM178 106q0 47 31 78t78 31t77.5 -30.5t30.5 -78.5q0 -47 -30.5 -77.5t-77.5 -30.5t-78 30.5t-31 77.5z" />
<glyph unicode="&#x22;" horiz-adv-x="937" d="M164 934v301q0 51 34.5 87t90.5 36q51 0 87 -36t36 -87v-301q0 -53 -36 -89t-87 -36q-55 0 -90 36t-35 89zM608 934v301q0 51 36 87t89 36t88 -36t35 -87v-301q0 -53 -35 -89t-88 -36t-89 36t-36 89z" />
<glyph unicode="#" horiz-adv-x="1685" d="M164 459q0 51 37 86t88 35h213v274h-213q-51 0 -88 36t-37 85q0 55 37 90t88 35h213v213q0 51 34.5 88t86.5 37q53 0 89 -37t36 -88v-213h272v213q0 51 36 88t89 37q51 0 86 -37t35 -88v-213h213q53 0 89 -35t36 -90q0 -49 -36 -85t-89 -36h-213v-274h213q53 0 89 -35 t36 -86q0 -53 -36 -89t-89 -36h-213v-213q0 -51 -35 -87t-86 -36q-53 0 -89 36t-36 87v213h-272v-213q0 -51 -36 -87t-89 -36q-51 0 -86 36t-35 87v213h-213q-51 0 -88 36t-37 89zM748 580h272v274h-272v-274z" />
<glyph unicode="$" horiz-adv-x="1687" d="M174 236q0 51 35 86.5t86 35.5h471v238h-57q-16 0 -33 1t-37 3q-227 14 -344 111q-78 63 -104.5 151t6.5 176q18 55 57 103.5t93 83.5t118.5 54t132.5 19h168v5q0 55 36 89.5t87 34.5t87 -34.5t36 -89.5v-3h471q16 0 34.5 -10t35 -26.5t26.5 -39t10 -46.5 q0 -51 -29.5 -88t-76.5 -37h-471v-201q94 4 194.5 -6t167.5 -43q100 -47 160.5 -128t64.5 -179q6 -98 -45 -183.5t-145 -140.5q-66 -39 -144.5 -51t-154.5 -12h-98v-5q0 -49 -36 -85.5t-87 -36.5t-87 36.5t-36 85.5v7h-471q-51 0 -86 36.5t-35 88.5zM436.5 956.5 q-1.5 -26.5 16.5 -53.5q33 -29 61.5 -35t71.5 -14q45 -6 92 -9t88 -3v209h-166q-49 0 -85 -12.5t-56.5 -34t-22 -48zM1012 356q76 -2 150.5 1t121.5 30q33 18 52.5 44t17.5 52q-6 59 -84 97q-33 14 -102.5 20t-155.5 6v-250z" />
<glyph unicode="%" horiz-adv-x="1681" d="M164 129q0 55 39 88l1183 1184q37 39 87 39q51 0 88 -39q39 -37 38 -88q0 -53 -38 -86l-1184 -1184q-33 -39 -88 -39q-53 0 -86 39q-39 33 -39 86zM293 1126q0 37 14.5 71t39 59.5t58 40t72.5 14.5q37 0 71 -14.5t59.5 -40t41 -59.5t15.5 -71q0 -39 -15.5 -72.5t-41 -59 t-59.5 -40t-71 -14.5q-78 0 -131 54.5t-53 131.5zM1104 313q0 37 14.5 71t40 59.5t59 41t72.5 15.5q37 0 71 -15.5t59.5 -41t40 -59.5t14.5 -71q0 -39 -14.5 -72.5t-40 -59t-59.5 -40t-71 -14.5q-78 0 -132 54.5t-54 131.5z" />
<glyph unicode="&#x26;" horiz-adv-x="1503" d="M167 362.5q1 34.5 14.5 74.5t41.5 85q25 37 54.5 69t60.5 60l-45 33q-63 43 -96 104.5t-29 133.5q4 86 53 160.5t129 121.5q74 43 161 48t163 3h47l127 -2q57 0 103 -16t83 -41t65.5 -53.5t51.5 -55.5l29 -32q31 -33 29.5 -78t-35.5 -76q-33 -29 -77 -28t-73 34l-33 37 q-47 53 -74.5 73.5t-68.5 20.5l-127 2h-51q-55 2 -116.5 0t-96.5 -22q-31 -18 -51.5 -48t-22.5 -57q0 -10 4 -23t27 -30l768 -532q8 55 12 97t4 71q0 45 31 75.5t76 30.5t76.5 -30.5t31.5 -75.5q0 -70 -14 -154q-12 -88 -35 -139l4 -4q37 -25 45 -69t-18 -81 q-25 -37 -69 -45t-81 19l-28 18q-72 -41 -164 -41h-432q-55 0 -112.5 4t-114 26.5t-109 74t-95.5 143.5q-10 23 -17 51.5t-6 63zM379.5 356q1.5 -14 5.5 -18q20 -47 40.5 -71.5t48.5 -36t63 -13.5t84 -2h346l-449 311q-31 -29 -62.5 -60.5t-54.5 -62.5q-23 -33 -21.5 -47z " />
<glyph unicode="'" horiz-adv-x="493" d="M164 934v301q0 51 34.5 87t90.5 36q51 0 87 -36t36 -87v-301q0 -53 -36 -89t-87 -36q-55 0 -90 36t-35 89z" />
<glyph unicode="(" horiz-adv-x="677" d="M164 262l221 -221q37 -37 88 -37t86 37q18 16 27.5 39.5t9.5 46.5q0 51 -37 88l-149 150v712l149 150q37 37 37 88t-37 88q-35 35 -86 35t-88 -35l-221 -223v-918z" />
<glyph unicode=")" horiz-adv-x="677" d="M164 137q0 -51 35 -86q37 -37 88 -37t88 37l221 221v918l-221 223q-37 35 -88 35t-88 -35q-35 -39 -35 -88t35 -88l149 -150v-712l-149 -150q-35 -39 -35 -88z" />
<glyph unicode="*" horiz-adv-x="1662" d="M176.5 435q13.5 44 52.5 67l433 241l-408 275q-41 27 -49 72t18 84q25 37 70 46t86 -18l371 -250v394q0 51 35.5 86.5t86.5 35.5t88 -35.5t37 -86.5v-418l410 229q41 23 85 10.5t69 -53.5q20 -39 7.5 -84t-52.5 -65l-429 -242l408 -274q37 -27 46 -71t-15 -85 q-27 -41 -73 -49t-83 18l-373 252v-393q0 -51 -36.5 -87t-88.5 -36q-51 0 -86.5 36t-35.5 87v414l-412 -228q-39 -20 -84 -8t-66 53q-25 39 -11.5 83z" />
<glyph unicode="+" horiz-adv-x="1681" d="M164 719q0 51 36 87t87 36h471v471q0 51 35.5 88t87.5 37q51 0 87 -37t36 -88v-471h471q51 0 87.5 -36t36.5 -87t-36.5 -87t-87.5 -36h-471v-471q0 -51 -36 -87t-87 -36t-87 36t-36 87v471h-471q-51 0 -87 36t-36 87z" />
<glyph unicode="," horiz-adv-x="716" d="M164 66q0 -51 35 -86q37 -37 88 -36t88 36l225 229q35 37 35 88t-35 88q-37 35 -88 35t-88 -35l-225 -231q-35 -35 -35 -88z" />
<glyph unicode="-" horiz-adv-x="1105" d="M164 580q0 -45 30.5 -76t75.5 -31h645q45 0 77 31t32 76t-31.5 76.5t-77.5 31.5h-645q-45 0 -75.5 -31.5t-30.5 -76.5z" />
<glyph unicode="." horiz-adv-x="587" d="M164 248q0 -72 50 -122t122 -50q35 0 65.5 13t54 37t37 54.5t13.5 67.5q0 70 -49 120t-121 50q-37 0 -67.5 -13.5t-54.5 -37t-37 -54t-13 -65.5z" />
<glyph unicode="/" horiz-adv-x="1495" d="M164 135q0 -41 33 -74q33 -31 75 -30q45 0 76 30l1032 1039q33 27 33 74q0 45 -32.5 75.5t-77.5 30.5t-74 -29q-264 -266 -445.5 -449.5t-299 -304t-183 -189t-95.5 -104.5t-36 -48.5t-6 -20.5z" />
<glyph unicode="0" horiz-adv-x="1681" d="M164 414v606q0 70 30.5 143.5t77.5 120.5l41 41q47 47 121 79t144 32h608q68 0 141.5 -32t120.5 -79l41 -41q47 -47 78.5 -120.5t31.5 -143.5v-606q0 -70 -31.5 -143.5t-78.5 -120.5l-41 -41q-47 -47 -121 -78t-141 -31h-608q-70 0 -144 30.5t-121 78.5l-41 41 q-47 47 -77.5 120.5t-30.5 143.5zM412 623l925 446q-12 27 -22 41l-41 41q-12 10 -40 23.5t-48 13.5h-608q-20 0 -49 -13.5t-42 -23.5l-41 -41q-10 -12 -22 -41t-12 -49v-397zM428 356q8 -18 18 -32l41 -41q12 -10 41 -22.5t50 -12.5h608q20 0 48 12t40 23l41 41 q10 12 23.5 40.5t13.5 49.5v387z" />
<glyph unicode="1" horiz-adv-x="1273" d="M164 117q0 51 36 88t89 37h248v766l-68 -68q-33 -39 -88 -39q-53 0 -86 39q-39 33 -39 84t39 90l268 268q6 8 19 19q4 4 10 6q35 23 67 23q55 0 97 -48q35 -45 26 -102v-1038h285q51 0 88 -37t37 -88t-37 -87t-88 -36h-778q-53 0 -89 36t-36 87z" />
<glyph unicode="2" horiz-adv-x="1683" d="M166 412v16q0 66 30.5 140.5t77.5 121.5l41 39q47 47 121 78t144 31h616q18 0 46 13t38 26l37 34q10 14 23.5 43t13.5 50v16q0 18 -13.5 48t-23.5 40l-41 41q-12 12 -42 24.5t-48 12.5l-897 4q-51 0 -88 36t-35 87q0 53 36 88t87 35l899 -2q70 0 142.5 -32t119.5 -79 l41 -39q47 -47 79 -122t32 -142v-16q0 -68 -30 -142t-77 -121l-35 -36q-47 -47 -121.5 -79t-142.5 -32h-616q-20 0 -49 -13.5t-42 -25.5l-40 -39q-10 -12 -22.5 -41t-12.5 -47v-16q0 -18 12 -48t23 -42l40 -39q12 -12 41 -23.5t50 -11.5h897q51 0 88 -37t37 -88 q0 -53 -37 -88t-88 -35h-897q-70 0 -144 30.5t-121 78.5l-41 38q-47 47 -77.5 122t-30.5 143z" />
<glyph unicode="3" horiz-adv-x="1681" d="M166 121q0 53 35 89t88 36h899q18 0 47 12t39 25l41 39q12 12 24.5 41.5t12.5 48.5v180h-879q-51 0 -88 36t-37 87t37 87t88 36h879v182q0 18 -12.5 47t-24.5 41l-41 41q-10 12 -40 24.5t-48 12.5h-897q-53 0 -89 37t-34 88q0 53 35 88t88 35h899q68 0 140.5 -32 t119.5 -79l41 -41q47 -47 78.5 -121t31.5 -141v-608q0 -70 -31.5 -143.5t-78.5 -121.5l-41 -41q-47 -47 -121 -76.5t-139 -29.5h-899q-53 0 -88 35t-35 86z" />
<glyph unicode="4" horiz-adv-x="1681" d="M164 819v496q0 51 36 87t87 36q53 0 89 -36t36 -87v-496q0 -18 12 -48t22 -40l41 -41q12 -12 41 -23.5t50 -11.5l415 -2v658q0 51 36 88t87 37t87 -37t36 -88v-658l236 -2q51 0 87.5 -36.5t36.5 -88.5q-2 -53 -37.5 -88t-86.5 -35l-236 3v-283q0 -51 -36 -87t-87 -36 t-87 36t-36 87v283l-420 2q-68 0 -140.5 30.5t-119.5 77.5l-41 41q-47 47 -77.5 121t-30.5 141z" />
<glyph unicode="5" horiz-adv-x="1681" d="M164 121q0 51 36 88t87 37h901q18 0 46 12t40 23l41 41q10 12 23.5 40.5t13.5 47.5v53q0 16 -12.5 39.5t-22.5 32.5l-27 22q-16 14 -50 25.5t-52 11.5h-797q-47 0 -88 18.5t-71.5 49t-49 71.5t-18.5 88v387q0 47 18.5 88t49 72t71.5 49.5t88 18.5h1084q51 0 87.5 -36 t36.5 -87t-36.5 -88t-87.5 -37h-1063v-346h776q63 0 136 -25.5t122 -66.5l27 -23q53 -45 89.5 -120t36.5 -144v-53q0 -68 -31.5 -141.5t-78.5 -121.5l-41 -41q-47 -47 -121 -77.5t-139 -30.5h-901q-51 0 -87 36t-36 87z" />
<glyph unicode="6" horiz-adv-x="1681" d="M164 414v606q0 70 29.5 143.5t76.5 120.5l43 43q47 47 121 79t144 32l608 -2q70 0 142.5 -32t119.5 -79l41 -41q37 -37 73.5 -96.5t36.5 -118.5q0 -51 -36.5 -88t-87.5 -37q-47 0 -83 34t-40 81q-4 6 -13.5 21.5t-23.5 29.5l-41 39q-12 12 -41 25.5t-49 13.5l-609 2 q-20 0 -46.5 -11.5t-39.5 -23.5l-43 -43q-10 -14 -22 -44t-12 -48v-180h774q68 0 141.5 -31t120.5 -78l41 -41q47 -47 78.5 -120.5t31.5 -139.5v-55q0 -70 -36.5 -144.5t-89.5 -119.5l-27 -21q-49 -41 -122 -65.5t-138 -24.5h-608q-70 0 -144 30.5t-121 78.5l-41 41 q-47 47 -77.5 120.5t-30.5 143.5zM412 414q0 -20 12 -49t22 -41l41 -41q12 -12 41 -23.5t50 -11.5h608q23 0 55.5 11t50.5 24l25 22q12 8 23.5 31.5t11.5 38.5v55q0 18 -13.5 46t-23.5 40l-41 41q-12 10 -40 23.5t-48 13.5h-774v-180z" />
<glyph unicode="7" horiz-adv-x="1681" d="M164 1311q0 51 36 87t87 36l899 -2q70 0 142.5 -32t119.5 -79l41 -41q47 -47 78.5 -118.5t31.5 -133.5q0 -68 -36.5 -138.5t-89.5 -115.5l-27 -18q-49 -41 -122 -66.5t-138 -25.5h-17q-18 0 -47.5 -12.5t-40.5 -26.5l-41 -37q-18 -18 -38.5 -54t-24.5 -61l-86 -383 q-12 -49 -56 -75.5t-94 -14.5q-43 10 -69.5 44t-26.5 75q0 4 1 11t3 17l88 381q14 59 50 125t79 109l41 41q47 47 121 77.5t141 30.5h17q23 0 55.5 11.5t50.5 25.5l25 19q12 12 22.5 30.5t12.5 30.5q-2 12 -12.5 38t-24.5 40l-41 41q-12 10 -41 23.5t-49 13.5l-897 2 q-51 0 -87 37t-36 88z" />
<glyph unicode="8" horiz-adv-x="1681" d="M164 416v16q0 66 30.5 139.5t77.5 120.5l27 27l-27 26q-47 47 -77.5 121t-30.5 140v16q0 70 30.5 143.5t77.5 120.5l41 41q47 47 121 79t144 32h608q68 0 141.5 -32t120.5 -79l41 -41q47 -47 78.5 -120.5t31.5 -143.5v-16q0 -66 -31.5 -139.5t-78.5 -121.5l-27 -26 l27 -27q47 -47 78.5 -120.5t31.5 -139.5v-16q0 -70 -31.5 -143.5t-78.5 -120.5l-41 -41q-47 -47 -121 -78t-141 -31h-608q-70 0 -144 30.5t-121 78.5l-41 41q-47 47 -77.5 120.5t-30.5 143.5zM412 416q0 -20 12 -49t22 -41l41 -41q12 -10 41 -22.5t50 -12.5h608q20 0 48 12 t40 23l41 41q10 12 23.5 41t13.5 49v16q0 18 -13.5 47t-23.5 39l-41 41q-12 12 -40 24.5t-48 12.5h-608q-20 0 -49 -12.5t-42 -24.5l-41 -41q-10 -10 -22 -38.5t-12 -47.5v-16zM412 1006q0 -18 12 -47t22 -39l41 -41q12 -12 41 -24.5t50 -12.5h608q20 0 48 12t40 25l41 41 q10 10 23.5 38.5t13.5 47.5v16q0 20 -13.5 49t-23.5 41l-41 41q-12 10 -40 23.5t-48 13.5h-608q-20 0 -49 -13.5t-42 -23.5l-41 -41q-10 -12 -22 -41t-12 -49v-16z" />
<glyph unicode="9" horiz-adv-x="1683" d="M164 305q0 51 39 90q35 35 86 35q49 0 88 -35l112 -114q12 -10 41 -22.5t50 -12.5h608q20 0 48 12t40 23l41 41q10 12 23.5 40.5t13.5 49.5v180h-774q-70 0 -144 30.5t-121 77.5l-41 41q-47 47 -77.5 121t-30.5 139v17q0 70 30.5 143.5t77.5 120.5l41 41q47 47 121 79 t144 32h608q68 0 141.5 -32t120.5 -79l41 -41q47 -47 79 -120.5t32 -143.5v-606q0 -70 -32 -143.5t-79 -121.5l-41 -41q-47 -47 -121 -77.5t-141 -30.5h-608q-70 0 -144 30.5t-121 77.5l-112 115q-39 33 -39 84zM414 1001q0 -18 12 -46.5t23 -39.5l40 -41q12 -12 41 -24 t50 -12h774v180q0 20 -13.5 49t-23.5 41l-41 41q-12 10 -40 23.5t-48 13.5h-608q-20 0 -49 -13.5t-42 -23.5l-40 -41q-10 -12 -22.5 -41t-12.5 -49v-17z" />
<glyph unicode=":" horiz-adv-x="587" d="M164 389q0 -72 50 -122t122 -50q35 0 65.5 13.5t54 37t37 54t13.5 67.5q0 70 -49 120t-121 50q-37 0 -67.5 -13.5t-54.5 -37t-37 -54t-13 -65.5zM164 971q0 -72 50 -122t122 -50q35 0 65.5 13t54 36.5t37 54.5t13.5 68q0 70 -49 120t-121 50q-37 0 -67.5 -13.5t-54.5 -37 t-37 -54t-13 -65.5z" />
<glyph unicode=";" horiz-adv-x="727" d="M164 184q0 -51 35 -86q37 -37 88 -36t88 36l225 230q35 37 35 88t-35 88q-37 35 -88 35t-88 -35l-225 -232q-35 -35 -35 -88zM303 940q0 -72 50 -122t122 -50q35 0 65.5 13.5t54 37t37 54t13.5 67.5q0 70 -49 120t-121 50q-37 0 -67.5 -13.5t-54 -37t-37 -54t-13.5 -65.5 z" />
<glyph unicode="&#x3c;" horiz-adv-x="911" d="M164 676q2 -29 11 -54.5t32 -46.5v-2l379 -372q41 -41 100 -41t100 41q43 41 42 100t-42 100l-278 275l274 278q41 41 41 101q0 59 -41 100t-100 41t-100 -41l-375 -379q-43 -43 -43 -100z" />
<glyph unicode="=" horiz-adv-x="1013" d="M164 256v256h768v-256h-768zM164 768v256h768v-256h-768z" />
<glyph unicode="&#x3e;" horiz-adv-x="911" d="M165 1054.5q-1 59.5 42 100.5q41 41 100 41t101 -41l378 -373v-2q23 -20 32 -45.5t11 -54.5q0 -57 -43 -100l-374 -379q-41 -41 -101 -41q-59 0 -100 41t-41 100t41 100l274 279l-278 274q-41 41 -42 100.5z" />
<glyph unicode="?" horiz-adv-x="1681" d="M165 1027q1 -38 1 -75q0 -47 18.5 -86t67.5 -55q29 -10 57.5 -5t52 22.5t38 43t14.5 56.5v125q0 6 10 18t23.5 26.5t27.5 28t23 21.5q14 16 23 22.5t30 6.5h100h328h244q20 0 34.5 -11.5t28.5 -23.5q18 -18 42 -44t24 -55q0 -10 1 -29.5t1 -41.5v-41t-2 -25 q-6 -14 -20.5 -29.5t-25 -25.5t-34 -33.5t-37.5 -23.5q-57 0 -114.5 1t-114.5 1h-246v-52v-110v-113v-49h246v76h28q29 0 69 -1t83 -1h76q37 0 66.5 8t55.5 35q51 51 110.5 105.5t86.5 123.5q16 39 17 79t1 81v78t-10 75q-18 64 -63 109q-29 29 -56.5 58.5t-58.5 55 t-65.5 44t-77.5 24.5q-47 6 -94.5 4t-94.5 -2h-547q-45 0 -81.5 -13t-69.5 -34.5t-61.5 -50.5t-57.5 -57q-35 -35 -58.5 -77t-33.5 -91q-6 -35 -5 -73zM698 186q0 -78 53.5 -132t131.5 -54t132 54t54 132t-54 132.5t-132 54.5t-131.5 -54.5t-53.5 -132.5z" />
<glyph unicode="@" horiz-adv-x="1683" d="M164 360q0 -47 21.5 -96t56.5 -84l112 -108q33 -33 81 -52.5t95 -19.5h711q47 0 95 19.5t83 54.5l146 145q37 37 37 88t-37 88q-39 39 -92 35q18 20 35 36l16 17q33 33 53 81t20 95l5 406v2q0 45 -19.5 93t-50.5 83l-111 117q-35 35 -84 56.5t-96 21.5h-711 q-47 0 -95 -19.5t-83 -54.5l-114 -117q-33 -33 -53.5 -82t-20.5 -96v-709zM412 365v702q2 2 2 4t2 6l110 111q4 0 9 4h702l2 -2q2 0 4 -2t18.5 -19.5t35 -38t35 -37t16.5 -18.5q2 -2 3 -5t3 -7v-33q0 -29 -1 -72t-1 -94t-1 -94t-1 -74v-30q0 -4 -4 -13l-103 -102 q-8 -4 -10 -4h-37v547h-248h-49q-47 0 -96 -19.5t-84 -54.5l-111 -109q-35 -35 -54 -84t-19 -96v-69q0 -47 19 -96.5t54 -84.5l111 -108q35 -35 84 -54.5t96 -19.5h338q31 0 68 10l-58 -57q-4 -4 -10 -4h-702q-4 0 -13 4q-2 2 -18.5 17.5t-34.5 34t-34.5 34.5t-18.5 18 q-4 4 -4 9zM780 666v61q4 8 4 10q2 2 18.5 17.5t35 35t35 35t18.5 17.5q4 4 10 4h47v-299h-47q-6 0 -10 4q-2 2 -18.5 17.5t-35 35t-35 34.5t-18.5 17q0 2 -4 11z" />
<glyph unicode="A" horiz-adv-x="1662" d="M164 84v66q0 6 1 14t3 18l315 1106q5 9 13 29q55 74 159 115h82h13h16h12h21h196h54h28h25q27 -4 49 -13h12q10 -8 21.5 -14t27.5 -14q12 -16 37 -33l4 -8l9 -4q2 -2 3 -4.5t5 -4.5l16 -24l291 -1123l4 -36v-70q-25 -43 -74 -74q-16 -3 -31 -3q-58 0 -108 36 q-8 20 -20 33l-9 24q0 27 -61 258l-21 78l-4 13h-49h-12h-70h-16h-16h-472h-16h-12h-21h-12h-57l-17 -66l-4 -8l-4 -17l-65 -233l-17 -57q-12 -18 -37 -37l-4 -8q-35 -13 -66 -13q-74 0 -122 74zM569 694h49h496h53h13h12q-4 16 -8 29q-47 199 -73 306.5t-34 123.5l-4 21 l-8 16h-49h-12h-209h-21h-57q-27 -49 -148 -496z" />
<glyph unicode="B" horiz-adv-x="1681" d="M164 0v1417h1044h13l53 -12l12 -4l8 -4h13l8 -8h12q219 -104 254 -349q2 -21 2 -42q0 -158 -121 -285q119 -121 119 -304v-12q-16 -270 -295 -381l-65 -12l-13 -6zM406 246h778l28 8q123 46 123 168v8q-28 115 -139 156h-790v-340zM406 836h765h13h16q137 43 135 192 q-31 104 -143 143h-770h-16v-335z" />
<glyph unicode="C" horiz-adv-x="1693" d="M195 338v586q-2 28 -2 55q0 320 342 432h671h13h12h33l28 -4q188 -68 320 -254v-66v-12v-12q-43 -78 -139 -78h-9q-25 6 -45 25l-12 4q-10 14 -24.5 28.5t-32.5 28.5l-21 25l-8 8q-8 4 -15.5 13t-17.5 20l-33 20l-49 12h-544h-41q-14 2 -33 -4h-13l-12 -8h-12 q-51 -29 -86 -82l-8 -4q-4 -10 -8.5 -21.5t-8.5 -27.5l-4 -8v-49v-13v-532q0 -31 13 -70q47 -80 143 -114h49h12h549l29 4q70 33 131 106q8 4 14 11.5t15 17.5l24 16l8 8l9 4l8 9q4 0 8 4l29 4h32l29 -4q45 -25 74 -78v-4v4v-8v4v-8v4v-8v4v-9v5v-9v4v-8v4v-4v-33v-4v4v-8v4 v-8v4v-8v4v-8v4v-4q-109 -176 -320 -258l-24 -4h-566h-12q-34 -5 -67 -5q-184 0 -326 148q-53 57 -90 152q-4 16 -8 24z" />
<glyph unicode="D" horiz-adv-x="1687" d="M186 72q-1 15 -1 29q0 140 149 141q16 0 33 -2v938q-22 -4 -42 -4q-88 0 -139 81q-4 20 -4 38q0 77 78 126h49h13h872h12q68 0 135 -33h13q137 -70 221 -225l20 -65l4 -9q5 -32 5 -69v-12v-656l-29 -102q-8 -10 -15.5 -23.5t-13.5 -29.5l-8 -5l-4 -8l-4 -12 q-10 -8 -20.5 -19.5t-20.5 -25.5q-8 -4 -14.5 -11.5t-14.5 -17.5q-16 -6 -28 -24q-10 -4 -20.5 -10.5t-20.5 -14.5q-23 -10 -50 -24q-23 -4 -45 -17q-4 0 -12 -4l-24 -4h-893h-17h-28h-29h-21q-29 10 -41 18l-20 13q-18 14 -25 43zM612 240h516q13 -2 27 -2q42 0 92 14 q115 69 115 207v14v516q0 29 -12 70q-12 20 -32 41.5t-46 48.5q-33 18 -82 25h-29h-520h-29v-918v-16z" />
<glyph unicode="E" horiz-adv-x="1691" d="M180 465q-1 -16 -1 -31q0 -346 349 -436h33h17h73h865q81 15 81 119v8q-4 117 -81 117h-842l-62 4q-166 33 -196 170l2 168h923q68 18 70 122v7q0 99 -61 116h-928v183q37 111 156 155l47 11h909q70 31 70 117v14q-2 49 -20.5 79.5t-53.5 30.5h-973q-301 0 -377 -377 v-577z" />
<glyph unicode="F" horiz-adv-x="1677" d="M164 1079q4 27 11.5 48.5t17.5 41.5q102 197 331 254h959q111 -23 111 -130q0 -117 -138 -117l-887 2l-28 -9q-147 -59 -147 -256q0 -36 5 -77h475q121 -8 121 -133q0 -113 -118 -115h-471v-492q-4 -100 -113 -100h-4q-115 2 -123 104z" />
<glyph unicode="G" horiz-adv-x="1714" d="M195 516v455q63 358 344 442h700q111 -4 209 -59q104 -55 143 -162q34 -93 34 -161q0 -13 -1 -25q-4 -112 -95 -112q-8 0 -16 1q-109 10 -114 121q2 14 2 26q0 132 -231 132q-33 0 -70 -3h-492l-49 -16q-90 -74 -104 -143q-8 -35 -11 -188q-2 -72 -2 -171q0 -112 2 -260 l9 -51q27 -59 98 -92q59 -14 490 -14q144 0 329 2v319h-512h-12q-119 0 -129 115v12q0 110 104 121l692 -2q82 -2 99 -78v-561l-4 -21q-62 -148 -227 -148q-11 0 -23 1h-29h-733q-14 -2 -29.5 -1t-36.5 5h-16q-322 109 -322 453q0 31 3 63z" />
<glyph unicode="H" horiz-adv-x="1671" d="M164 94v1258q15 110 111 110h8q104 0 123 -110v-516h933v446v12q0 125 123 125q119 0 119 -125v-16v-1188q-10 -98 -104 -100h-8q-90 0 -126 88l-4 47v465h-933l-5 -508q-14 -82 -108 -86h-7q-84 0 -122 98z" />
<glyph unicode="I" horiz-adv-x="483" d="M164 82v1270q14 80 116 84h9q95 0 112 -84v-1270q-13 -82 -107 -82h-9q-98 2 -121 82z" />
<glyph unicode="J" horiz-adv-x="1744" d="M186 496q10 100 119 100h4q115 0 119 -117q-3 -23 -3 -44q0 -197 279 -197h3h303q16 4 43.5 14t55.5 28.5t47.5 46t21.5 70.5v779h-875q-84 8 -94 104q-1 9 -1 17q0 83 89 120h1253q111 -18 111 -131q0 -112 -101 -112h-12l-125 2l-2 -836q-14 -166 -95 -249t-247 -91 h-549l-24 4q-321 64 -321 442q0 24 1 50z" />
<glyph unicode="K" horiz-adv-x="1683" d="M164 82v1266q23 70 112 71h13q82 0 114 -71l3 -422l841 497l266 2q88 -25 89 -135q0 -111 -82 -116l-209 2l-463 -275l491 -659h134q90 -35 90 -125v-11q-6 -96 -93 -106h-253l-582 770l-229 -131l-5 -565q-20 -80 -116 -80h-5q-100 2 -116 88z" />
<glyph unicode="L" horiz-adv-x="1665" d="M164 356v987q18 82 119 82h5q96 0 118 -79v-945q33 -131 139 -159l962 -4q74 -30 74 -130q0 -94 -74 -112h-1003q-100 10 -211 90q-115 82 -129 270z" />
<glyph unicode="M" horiz-adv-x="1994" d="M164 84q15 -84 118 -84h9q117 4 117 84v842l4 61q33 166 170 197l331 -2v-924q18 -68 123 -72h6q99 0 117 64v928h346q111 -37 156 -156l10 -47v-909q31 -70 117 -70h14q100 4 109 74l2 972q0 301 -377 377h-905q-16 1 -31 1q-346 0 -436 -349v-33v-16v-74v-864z" />
<glyph unicode="N" horiz-adv-x="1662" d="M164 106v1328h1057q209 -74 274 -170q68 -94 86 -195v-963q-8 -110 -113 -110h-6q-109 4 -123 106v918q-12 53 -37.5 93t-95.5 77l-800 2l-7 -1090q-10 -96 -120 -98h-8q-103 0 -107 102z" />
<glyph unicode="O" horiz-adv-x="1699" d="M201 532v529l4 24l12 37q8 18 12 41q96 186 312 250h49h12h537h24h82h33q16 -4 35.5 -11t42.5 -18h12q119 -59 197 -184l8 -4l20 -49l4 -12l13 -29q0 -4 4 -12v-13l4 -12v-696l-4 -58q-107 -319 -433 -319h-22h-610l-29 4q-322 111 -322 458q0 35 3 74zM442 397 q4 -16 11.5 -34.5t17.5 -38.5q31 -35 86 -74q9 -2 170 -2t475 2q168 25 174 188v549q0 29 -12 70q-14 33 -53 61l-21 25q-29 16 -65 24l-8 4h-29h-33h-557q-78 -25 -135 -98q-10 -25 -21 -65v-50v-561z" />
<glyph unicode="P" horiz-adv-x="1691" d="M164 74v1175q4 18 12 33v12q47 84 152 127h49h12h70h16h17h16h16h45h74h16h25h21h24h70h24h29h25h28h25h28h82h13h16h12h21h45h16q10 1 19 1q48 0 96 -17h12q246 -94 291 -361v-126q3 -28 3 -55q0 -257 -253 -400l-53 -17l-8 -4l-33 -8l-16 -4h-13h-28h-33h-70h-16h-53 h-21h-45h-49h-12h-70h-16h-54h-49h-12h-70h-24h-29h-82h-12h-17h-40v-49v-12v-70v-16v-54v-73v-13v-16l-5 -53q-49 -79 -112 -79q-52 0 -113 54q-4 8 -12 25zM406 676h49h12h70h16h53h21h45h49h12h70h16h53h50h12h70h24h127h12l17 4h16l25 8q113 59 114 193q7 38 7 71 q0 161 -162 224h-29h-33h-69h-17h-53h-20h-45h-50h-12h-70h-16h-53h-49h-13h-69h-41q-8 2 -21 2q-12 0 -28 2h-29h-16h-17h-28v-50v-12v-69v-17v-53v-74v-12v-16v-17v-127v-12v-12v-33z" />
<glyph unicode="Q" horiz-adv-x="1759" d="M207 340v561q-4 39 -4 75q0 321 344 437h49h12h70h16h54h73h13h16h82h12h17h49h12h70h127h12h12h33l29 -4q317 -104 323 -451v-49v-12v-70v-16v-53v-21v-45v-49v-12v-70v-16v-53v-50v-12v-70l-24 -94l-9 -8l-4 -12v-13q56 -51 56 -120q0 -35 -15 -76q-33 -39 -86 -66 q-15 -2 -29 -2q-70 0 -126 56l-17 4l-90 -33l-24 -4h-29h-12h-13h-12h-29h-12h-16h-13h-12h-45h-16h-41h-17h-82h-12h-12h-82h-12h-17h-12h-21h-12q-40 -6 -79 -6q-244 0 -400 227l-21 49l-4 12l-12 29l-4 12zM449 590q-7 -49 -7 -92q0 -176 121 -248q47 -14 114 -14 q22 0 46 2h12h33h12h13h12h12h41h45h17h16h49h12h70h16h21h70q-8 10 -17.5 20t-23.5 21l-5 8l-8 4l-20 20l-8 13l-9 4l-8 12l-12 8l-12 17l-9 8l-12 12l-16 12l-25 29l-16 12q-20 27 -58 58q0 6 -8 8q-23 27 -61 61q0 6 -8 8l-4 9q-27 25 -54 61q-8 27 -8 54q0 52 29 106 q54 46 124 46q23 0 48 -5q47 -29 102 -90q10 -12 33 -29l4 -8l8 -8l8 -9l9 -8q10 -12 32 -28l5 -9l8 -4l4 -8l8 -8l12 -12l13 -13l49 -45q0 -6 8 -8l4 -8l8 -8l8 -9l9 -8l8 -8l12 -12l53 -53l4 36v500q0 29 -12 70q-14 29 -53 61l-21 25q-29 16 -65 24l-8 4h-29h-33h-69h-17 h-53h-21h-16h-70h-28h-33h-70h-16h-53h-29h-82q-84 -27 -143 -114q-13 -49 -13 -115q0 -22 1 -45v-12v-33v-12v-13v-41v-12v-127v-57z" />
<glyph unicode="R" horiz-adv-x="1714" d="M164 78v1167l4 8v17l8 8v12q47 88 152 127h835q12 2 24 2q29 0 62 -10h13l28 -8q254 -106 291 -369q7 -55 7 -105q0 -330 -290 -468q6 -10 65.5 -68.5t172.5 -169.5q0 -6 8 -8q4 -12 25 -29q2 -12 12 -24q3 -17 3 -33q0 -81 -77 -131h-53h-12h-12h-13q-16 8 -33.5 22.5 t-35.5 34.5l-381 381h-561v-311l-5 -53q-47 -76 -113 -76q-45 0 -100 35zM406 680h765h13l28 8q104 57 127 193q6 34 6 65q0 164 -174 230h-28h-737v-496z" />
<glyph unicode="S" horiz-adv-x="1777" d="M236 360q-15 -24 -15 -52q0 -85 148 -199l12 -9q98 -82 201 -102h20l701 -4l69 16q233 43 279 307q2 28 2 54q0 338 -322 446l-82 8h-12h-12q-191 -1 -322 -1h-117q-152 1 -172 5q-127 51 -135 166q0 5 -1 9q0 108 138 170h568q31 2 56.5 -1.5t45.5 -7.5l37 -20l47 -37 l88 -102q52 -30 97 -30q38 0 71 21q43 30 43 81q0 33 -18 75q-125 180 -303 254l-33 8h-33h-12h-13h-610h-12h-49q-351 -118 -351 -413q0 -60 15 -128q76 -190 242 -266q4 0 16 -4l74 -20l643 -4h28q123 -45 156 -156q-6 -133 -123 -180h-12l-33 -8l-528 4q-18 -2 -34 -2 q-61 0 -111 28q-62 36 -144 101q-59 46 -105 46q-49 0 -83 -53z" />
<glyph unicode="T" horiz-adv-x="1675" d="M170 1296v10q0 79 88 121h1245q86 -28 86 -119v-8q0 -98 -90 -114h-483v-1106q-14 -76 -121 -80q-104 0 -125 86v1104h-512q-82 20 -88 106z" />
<glyph unicode="U" horiz-adv-x="1665" d="M164 360v988q18 76 112 77h9q90 0 116 -77l5 -951l16 -49l4 -8q25 -33 51.5 -57.5t83.5 -40.5h598l49 12q70 37 123 115q9 43 9 111q0 23 -1 48v824q14 80 117 80q100 0 125 -72v-983v-7q0 -78 -41 -141q-96 -147 -283 -221q-33 -8 -90 -8h-487q-39 -5 -75 -5 q-276 0 -421 275q-8 20 -13 43t-7 47z" />
<glyph unicode="V" horiz-adv-x="1685" d="M164 1290q8 100 96 123q15 4 29 4q67 0 114 -78l320 -1028q20 -55 68 -73l163 2q49 2 68 73q168 512 332 1051q44 60 102 60q25 0 53 -11q85 -30 85 -113q0 -9 -1 -18l-346 -1110q-20 -68 -61 -110t-123 -62h-377q-66 16 -115 63.5t-82 145.5z" />
<glyph unicode="W" horiz-adv-x="1994" d="M164 371q0 -301 377 -377h905q16 -1 31 -1q346 0 436 349v33v16v74v864q-13 82 -119 82h-10q-115 -4 -115 -82v-842l-4 -61q-33 -166 -170 -197l-332 2v924q-19 68 -123 70h-6q-99 0 -116 -62v-927h-347q-111 37 -155 155l-10 47v910q-30 70 -117 70q-8 0 -17 -1 q-100 -4 -108 -74v-972z" />
<glyph unicode="X" horiz-adv-x="1716" d="M170 94q-1 12 -1 23q0 53 24 82q27 33 157 43l80 12l320 455l-308 450q-10 9 -49 9q-13 0 -28 -1q-11 -1 -22 -1q-47 0 -91 14q-49 14 -66 102q-2 12 -2 23q0 71 78 116h227q86 -25 142 -98l266 -389l283 397q68 92 169 92q15 0 31 -2l156 2q94 -19 94 -110v-8 q-4 -96 -59 -109q-29 -4 -65 -8t-81 -8q-37 0 -65 -17l-311 -454l323 -471l92 -9h9q134 0 145 -57q7 -30 7 -62q0 -27 -5 -55q-8 -57 -64 -59h-198q-14 -2 -27 -2q-70 0 -119 63l-311 430l-323 -430q-52 -58 -105 -58q-5 0 -10 1h-201q-86 24 -92 94z" />
<glyph unicode="Y" horiz-adv-x="1667" d="M164 930v397l4 25q25 37 74 65q15 3 29 3q65 0 118 -52q2 -12 17 -37q0 -362 20 -405q25 -31 70 -70l8 -8l8 -4l8 -4l64 -17h585l56 17q16 8 32.5 21t32.5 32l8 4l9 8l24 49l4 9q2 14 3 30.5t1 34.5v287q6 27 21 57q46 45 103 45q38 0 81 -20q20 -23 37 -58q0 -4 4 -8 v-49v-340q-8 -20 -12 -53q-127 -313 -477 -313q-49 0 -101 6v-467v-25q-29 -84 -123 -90q-86 2 -122 90v492q-58 -8 -111 -8q-345 0 -471 331z" />
<glyph unicode="Z" horiz-adv-x="1734" d="M193 205q-8 25 -8 49q0 69 61 131q27 41 1044 754q-33 29 -143 45h-864q-76 33 -82 116v12q0 78 61 118h881h82l32 -5l29 -4q272 -107 272 -284q0 -62 -34 -133q-25 -27 -62 -54l-962 -667q33 -27 164 -39h835q111 -42 111 -126q0 -90 -99 -118h-983q-156 6 -233 59 q-74 53 -102 146z" />
<glyph unicode="[" horiz-adv-x="788" d="M164 -2h405q53 0 88 36t35 87t-34.5 87t-88.5 36h-157v944h172q51 0 87 36t36 89q0 51 -36 87t-87 36h-295h-125v-1438z" />
<glyph unicode="\" horiz-adv-x="1495" d="M164 1147q0 -45 31 -74q264 -264 447 -445.5t304 -299t189.5 -183t104.5 -95.5t47 -36t20 -6q45 0 75 33q31 31 31 76q0 47 -31 76l-1038 1032q-31 33 -74 32q-47 0 -76.5 -32.5t-29.5 -77.5z" />
<glyph unicode="]" horiz-adv-x="788" d="M164 123q0 -51 36 -87t89 -36h295h123v1438h-406q-51 0 -87 -36t-36 -87q0 -53 36 -89t87 -36h158v-944h-170q-53 0 -89 -36t-36 -87z" />
<glyph unicode="^" horiz-adv-x="1306" d="M167 756q3 -51 42 -86t89 -32t85 42l313 348q41 -45 95.5 -104.5t102.5 -111.5t81 -89l33 -37q35 -37 86 -39t90 33q37 35 39 85t-33 89l-404 440q-35 41 -92 41q-55 0 -90 -41l-405 -448q-35 -39 -32 -90z" />
<glyph unicode="_" horiz-adv-x="1679" d="M164 125q0 -51 36 -87t87 -36h1188q51 0 86.5 36t35.5 87t-35.5 87t-86.5 36h-1188q-51 0 -87 -36t-36 -87z" />
<glyph unicode="`" horiz-adv-x="722" d="M164 922q0 -49 35 -88q94 -92 151.5 -144.5t90 -78t49 -32t28.5 -6.5q51 0 86 35q37 37 36 88.5t-36 87.5l-229 226q-39 35 -88 34q-49 0 -88 -34q-35 -39 -35 -88z" />
<glyph unicode="a" d="M164 322q0 -43 19.5 -86t52.5 -72l122 -105q29 -25 71 -40t81 -15h553q35 0 71.5 11.5t65.5 31.5v-47h211v311v269v32q0 43 -20.5 87t-55.5 73l-121 100q-31 25 -71.5 40.5t-79.5 15.5h-563q-37 0 -77 -14.5t-69 -36.5l-92 -66q-37 -27 -44 -71q-1 -9 -1 -18 q0 -33 21 -60q28 -36 70 -44q9 -2 18 -2q32 0 61 21l94 65l4 5q4 2 8.5 4t8.5 2h559q4 0 8 -2l8 -4l17 -15q18 -16 39.5 -33.5t40 -33t20.5 -17.5h2v-35h-926q-45 0 -75.5 -31.5t-30.5 -76.5v-143zM379 324v4v30h817v-41v-2q-4 -2 -21.5 -16t-39 -30.5t-39.5 -30.5l-17 -13 q-4 -4 -9 -5t-9 -1h-549q-10 0 -14 4q-2 0 -19.5 15.5t-39 34t-40 34t-20.5 17.5z" />
<glyph unicode="b" d="M164 346q0 -41 17.5 -84t45.5 -72l127 -127q29 -29 72 -46t84 -17h553q41 0 84 17.5t72 45.5l127 127q29 29 47 72t18 84v229q0 41 -18.5 84t-46.5 72l-127 127q-29 29 -72 47.5t-84 18.5h-684v219q0 45 -32 75.5t-77 30.5t-75.5 -30.5t-30.5 -75.5v-797zM379 350v359 h680q2 0 10 -4q0 -2 19.5 -20.5t42 -41l41 -41l20.5 -20.5q0 -4 4 -9v-223q-4 -8 -4 -10q-2 0 -20.5 -19.5t-41 -42t-42 -41t-19.5 -20.5q-4 0 -5 -1t-5 -1h-545q-4 0 -5 1t-5 1q0 2 -19.5 20.5t-42 41t-41 42t-20.5 19.5q0 4 -1 5t-1 5z" />
<glyph unicode="c" d="M164 350q0 -41 17.5 -84t45.5 -71l127 -127q29 -29 72 -46.5t84 -17.5h553q41 0 84 17.5t72 46.5l159 159q33 33 33 76q0 45 -33 78q-31 31 -75 31q-45 0 -76 -31l-25 -25q-24 -24 -53 -54t-54.5 -54.5t-25.5 -26.5q-4 0 -5 -1t-5 -1h-545q-4 0 -5 1t-5 1l-18 19 q-19 20 -42.5 43.5t-43.5 42.5l-19 18q0 4 -1 5t-1 5v224q0 2 1 4t1 4l19 20q20 19 43.5 41.5t42.5 42.5l18 19q12 4 10 4h545q-2 0 10 -4q0 -2 25.5 -27t54.5 -54.5t53 -53.5l25 -23q31 -33 76 -33t75 33q33 31 33 76t-33 75l-159 160q-29 29 -72 47.5t-84 18.5h-553 q-41 0 -84 -18.5t-72 -47.5l-127 -127q-29 -29 -46 -71.5t-17 -83.5v-230z" />
<glyph unicode="d" d="M164 354q0 -41 17.5 -84t45.5 -71l127 -127q29 -29 72 -46.5t84 -17.5h553q41 0 84 17.5t72 46.5l127 127q29 29 47 71.5t18 83.5v797q0 45 -31.5 75.5t-76.5 30.5t-76 -30.5t-31 -75.5v-219h-686q-41 0 -84 -18.5t-72 -47.5l-127 -127q-29 -29 -46 -71.5t-17 -83.5v-230 zM379 358v224q0 2 1 4t1 4l20.5 20.5l41 41t42 41t19.5 20.5q8 4 10 4h682v-359q-4 -8 -4 -10q-2 0 -20.5 -19.5t-41 -42t-42 -41t-19.5 -20.5q-4 0 -5 -1t-5 -1h-545q-4 0 -5 1t-5 1q0 2 -19.5 20.5t-42 41t-41 42t-20.5 19.5q0 4 -1 5t-1 5z" />
<glyph unicode="e" d="M164 313q0 -43 19.5 -87t54.5 -72l120 -103q31 -25 72 -39t80 -14h553q39 0 80 14.5t71 38.5q-2 -2 -4 -2l-2 -2l92 68q36 27 44 69q2 9 2 19q0 32 -21 61q-27 37 -70 44q-9 1 -18 1q-33 0 -61 -20l-95 -68l-4 -4q-8 -4 -16 -4h-549q-8 0 -16 4l-18 15q-17 16 -38.5 33.5 t-40 32.5t-20.5 17v2v35h924q45 0 76.5 31t31.5 76v143q0 43 -20.5 87t-53.5 73l-123 104q-29 25 -70.5 40.5t-80.5 15.5h-553q-37 0 -79 -14.5t-71 -39.5l-120 -94q-35 -29 -55.5 -73t-20.5 -87v-301zM379 567v41q2 2 20.5 16.5t39 31t37.5 30.5l18 14l9 4.5t9 2.5h549 q8 0 14 -7q2 0 19.5 -15t39 -33.5t40 -34t20.5 -17.5l2 -2v-31h-817z" />
<glyph unicode="f" horiz-adv-x="1216" d="M164 752q0 -45 31.5 -76t76.5 -31h162v-539q0 -45 31 -75.5t76 -30.5t76.5 30.5t31.5 75.5v539h182q45 0 76 31t31 76t-30.5 75.5t-76.5 30.5h-182v68v2q2 2 20.5 17.5t40 33.5t39 33.5t19.5 15.5q2 2 6 3t6 3h39q39 0 84 -1t82 -1h37h5q42 0 71 29q32 31 34 76q1 3 1 7 q0 40 -29 70q-31 31 -76 33l-244 2q-41 0 -83 -14t-72 -41l-121 -104q-35 -29 -54.5 -72t-19.5 -88v-72h-162q-45 0 -76.5 -30.5t-31.5 -75.5z" />
<glyph unicode="g" d="M164 307q0 -43 20.5 -87t55.5 -73l120 -96q29 -23 71 -37t79 -14h553q33 0 68.5 11.5t64.5 29.5v-21q-4 -8 -4 -10q-2 0 -18.5 -16.5t-36 -35.5t-36 -35.5l-18.5 -18.5t-4 -2t-4 -2h-676q-45 0 -76.5 -31t-31.5 -76t31.5 -76.5t76.5 -31.5h680q41 0 84 18t72 47l111 111 q29 29 47 71.5t18 83.5v273q0 4 -1 7t-1 7t1 9t1 10v282q0 43 -20.5 87t-53.5 73l-123 104q-29 25 -70.5 40.5t-80.5 15.5h-553q-39 0 -80 -15.5t-72 -40.5l-120 -100q-35 -29 -54.5 -73t-19.5 -87v-301zM379 311v2v291q2 2 20.5 17.5t40 33t38.5 32.5l18 15q4 2 8 4.5 t8 2.5h549q8 0 14 -7q2 0 19.5 -15t39 -33.5t40 -34t20.5 -17.5l2 -2v-274q-2 0 -2 -2q-2 -2 -20.5 -18.5t-40 -35t-30.5 -26.5l-28 -25q-8 -4 -14 -4h-549q-4 0 -9 1t-9 5l-18 13q-17 14 -37.5 30.5t-39 30.5t-20.5 16z" />
<glyph unicode="h" d="M164 109q0 -45 30.5 -76t75.5 -31t77 30.5t32 76.5v471q29 29 67.5 68.5t61.5 62.5h557l131 -131v-471q0 -45 30.5 -76t76.5 -31q45 0 76.5 30.5t31.5 76.5v516q0 42 -33 75l-192 195q-35 31 -76 31h-645q-43 0 -78 -31l-8 -10v260q0 45 -32 75.5t-77 30.5t-75.5 -30.5 t-30.5 -75.5v-1036z" />
<glyph unicode="i" horiz-adv-x="503" d="M164 1145q0 -53 38 -91t91 -38t91 38t38 91t-38 91t-91 38t-91 -38t-38 -91zM186 113q0 -45 31 -76t76 -31t75.5 31t30.5 76v708q0 47 -30.5 78t-75.5 31t-76 -31t-31 -78v-708z" />
<glyph unicode="j" horiz-adv-x="804" d="M164 -152q0 -45 30.5 -75.5t77.5 -30.5h129q41 0 84 17.5t72 45.5l80 80q29 29 46 72t17 84v772q0 47 -30.5 78t-75.5 31t-76 -31t-31 -78v-770q-4 -4 -4 -8l-75 -76q-2 0 -4.5 -1t-4.5 -1h-127q-47 0 -77.5 -31.5t-30.5 -77.5zM465 1137q0 -53 38 -91t91 -38t91 38 t38 91t-38 91t-91 38t-91 -38t-38 -91z" />
<glyph unicode="k" d="M164 113q0 -45 30.5 -76t75.5 -31t77 31t32 76v313l168 66l489 -457q29 -29 74 -29h193q45 0 76.5 31t31.5 76t-31.5 76.5t-76.5 31.5h-152q-14 12 -57 52t-98.5 92.5t-116 108.5t-109.5 104l334 127q10 4 25.5 7t25.5 3h148q45 0 76.5 30.5t31.5 75.5q0 47 -31.5 78 t-76.5 31h-148q-29 0 -64.5 -7.5t-64.5 -17.5l-647 -250v494q0 45 -32 75.5t-77 30.5t-75.5 -30.5t-30.5 -75.5v-649v-2v-385z" />
<glyph unicode="l" horiz-adv-x="653" d="M164 1143q0 -45 31 -76l23 -25q24 -24 53.5 -54t54 -55.5t26.5 -27.5q4 -4 4 -10v-789q0 -45 31 -75.5t78 -30.5q45 0 75.5 30.5t30.5 75.5v793q0 41 -17 84t-46 72l-162 164q-30 31 -74 32h-3q-42 0 -74 -32q-31 -31 -31 -76z" />
<glyph unicode="m" horiz-adv-x="1880" d="M164 109q0 -45 30.5 -76t75.5 -31t77 30.5t32 76.5v569h276q92 0 128 -3t46 -5q4 -4 20.5 -17.5t22.5 -17.5v-526q0 -45 32 -76t77 -31t75.5 30.5t30.5 76.5v534v19q0 8 -4 16h281q94 0 130 -3t44 -5q4 -4 21.5 -17.5t23.5 -17.5v-526q0 -45 31 -76t76 -31t76.5 30.5 t31.5 76.5v534q0 45 -22.5 89t-57.5 71l-55 41q-18 14 -43 24.5t-58.5 16.5t-81.5 8t-116 2h-307q-31 0 -56.5 -16.5t-39.5 -40.5l-9 6q-18 14 -41.5 24.5t-57.5 16.5t-82 8t-116 2h-307q-35 31 -78 31q-45 0 -75.5 -31t-30.5 -76v-710z" />
<glyph unicode="n" d="M164 104q0 -45 30.5 -75.5t75.5 -30.5t77 30.5t32 75.5v570h598q92 0 128 -3t46 -5q4 -4 20.5 -17.5t24.5 -17.5v-527q0 -45 30.5 -75.5t76.5 -30.5q45 0 76.5 30.5t31.5 75.5v535q0 45 -23.5 89t-58.5 71l-53 41q-18 14 -43 23t-58.5 15.5t-82 8.5t-115.5 2h-631 q-29 33 -76 33q-45 0 -75.5 -31t-30.5 -78v-709z" />
<glyph unicode="o" d="M164 317q0 -43 20.5 -87t53.5 -72l122 -99q29 -25 70 -39t80 -14h553q39 0 80 14.5t71 38.5l121 103q35 29 55.5 73t20.5 87v288q0 43 -20.5 87t-53.5 73l-123 104q-29 25 -70.5 40.5t-80.5 15.5h-553q-37 0 -79 -14.5t-71 -38.5l-120 -95q-35 -29 -55.5 -72.5 t-20.5 -86.5v-306zM379 322v294q2 2 20.5 16.5t39 31t37.5 30.5l18 15q4 2 9 4t9 2h549q8 0 14 -6q2 0 19.5 -15.5t39 -34t40 -34t20.5 -17.5l2 -2v-280q-2 0 -2 -2q-2 -2 -20.5 -17.5t-40 -33t-39.5 -33.5l-17 -15q-8 -4 -16 -4h-549q-10 0 -18 4q0 2 -17.5 16.5t-38 31 t-39 31.5t-20.5 18z" />
<glyph unicode="p" d="M164 -207q0 -45 30.5 -76.5t75.5 -31.5t77 31.5t32 76.5v242q29 -18 63.5 -28.5t67.5 -10.5h553q37 0 79 14.5t70 36.5l119 92q35 29 57.5 73t22.5 87v309q0 43 -21.5 87t-54.5 73l-123 98q-29 23 -69.5 38.5t-79.5 15.5h-553q-39 0 -80 -15.5t-72 -40.5l-120 -100 q-23 -18 -39.5 -45t-26.5 -55q-8 -18 -8 -46v-14v-301v-510zM379 307v2v291q2 2 20.5 17.5t40 33t38.5 32.5l18 15q4 2 8 4.5t8 2.5h549q4 0 9 -2.5l9 -4.5l17 -14q18 -14 38.5 -31.5t39 -32t20.5 -16.5l2 -2v-297q-4 -2 -22.5 -16.5t-38 -29.5t-37.5 -29l-17 -13 q-6 -6 -20 -6h-549q-4 0 -9 1t-9 5l-18 13q-17 14 -37.5 30t-39 30.5t-20.5 16.5z" />
<glyph unicode="q" d="M164 307q0 -43 21.5 -87t56.5 -73l118 -92q29 -23 71 -37t79 -14h553q33 0 68.5 10.5t64.5 28.5v-240q0 -45 30.5 -76.5t76.5 -31.5q45 0 76.5 31.5t31.5 76.5v508v301v15q0 20 -10 45q-10 29 -26.5 55.5t-39.5 44.5l-121 100q-31 25 -71.5 40.5t-79.5 15.5h-553 q-39 0 -80 -15.5t-70 -38.5l-122 -98q-33 -29 -53.5 -73t-20.5 -87v-309zM379 313v297v2q2 2 20.5 16.5t39 32t37.5 31.5l18 15q4 2 9 4t9 2h549q4 0 8 -2l8 -4l17 -15q18 -16 39.5 -33.5t40 -33t20.5 -17.5h2v-291v-2q-4 -2 -21.5 -16t-39 -30.5t-39.5 -30.5l-17 -13 q-4 -4 -9 -5t-9 -1h-549q-4 0 -10 1t-10 5l-18 13q-17 14 -36.5 29.5t-38 29.5t-20.5 16z" />
<glyph unicode="r" d="M164 111q0 -45 30.5 -76t75.5 -31t77 31t32 76v583h747q4 0 10.5 -2t10.5 -4q2 -2 21.5 -17.5t27.5 -19.5q4 -41 34 -70.5t73 -29.5q45 0 76.5 31.5t31.5 76.5t-23.5 89t-58.5 71l-53 41q-29 23 -71 36t-79 13h-759q-20 0 -31 -4q-29 23 -66 23q-45 0 -75.5 -31 t-30.5 -78v-708z" />
<glyph unicode="s" horiz-adv-x="1499" d="M167 261q3 -44 38 -73l160 -131q29 -25 70.5 -39t80.5 -14h555q41 0 83 15.5t71 39.5l116 101q33 29 53.5 72.5t20.5 86.5v33q0 53 -32.5 99.5t-84.5 64.5l-100 35q-27 10 -62.5 16t-64.5 6h-561q-10 0 -27.5 2.5t-27.5 6.5l-25 9q-24 9 -47 17v2q2 2 19.5 17.5t38 33 t37.5 31.5l18 15l8 4t8 2h553q4 0 8 -2l8 -4l25 -21l54 -45l54 -45l23 -21q30 -25 67 -25h12q44 4 72 40q26 32 26 71v8q-3 44 -38 72l-159 131q-29 25 -71 40.5t-81 15.5h-555q-41 0 -82 -15.5t-72 -40.5l-116 -102q-33 -29 -52.5 -72t-19.5 -86v-32q0 -53 31.5 -100.5 t83.5 -63.5l100 -37q27 -10 62.5 -15.5t64.5 -5.5h561q10 0 27.5 -3t27.5 -7l74 -24q-2 -2 -2 -5q-2 -2 -19.5 -16t-38 -31.5t-38.5 -33.5l-17 -15q-8 -4 -14 -4h-555q-8 0 -16 4q0 2 -24.5 22.5t-54.5 45t-53 43.5l-24 20q-31 25 -68 25h-11q-45 -4 -73 -39 q-26 -32 -25 -71v-8z" />
<glyph unicode="t" horiz-adv-x="1214" d="M164 723q0 -45 30.5 -76t75.5 -31h162v-305q0 -43 19.5 -87t54.5 -72l123 -105q29 -25 71 -40q37 -13 72 -13h10l244 2q45 0 76 32q28 29 28 68v8q0 45 -31.5 76t-76.5 31h-37t-82 -1t-84 -1h-39q-10 0 -14 4l-18 15q-17 16 -38.5 34.5t-40 33.5t-20.5 17q-2 0 -2 2v301 h182q45 0 77 31t32 76q0 47 -32 77.5t-77 30.5h-182v304q0 45 -30.5 76.5t-77.5 31.5q-45 0 -76 -31.5t-31 -76.5v-304h-162q-45 0 -75.5 -30.5t-30.5 -77.5z" />
<glyph unicode="u" d="M164 350q0 -41 17.5 -84t45.5 -71l127 -127q29 -29 72 -46.5t84 -17.5h553q41 0 84 17.5t72 46.5l127 127q29 29 47 71.5t18 83.5v469q0 47 -31.5 78t-76.5 31t-76 -31t-31 -78v-465q-4 -8 -4 -10q-2 0 -20.5 -19.5t-41 -42t-42 -41t-19.5 -20.5q-4 0 -5 -1t-5 -1h-545 q-4 0 -5 1t-5 1q0 2 -19.5 20.5t-42 41t-41 42t-20.5 19.5q0 4 -1 5t-1 5v465q0 47 -32 78t-77 31t-75.5 -31t-30.5 -78v-469z" />
<glyph unicode="v" d="M164 508q0 -41 17.5 -84t45.5 -72l283 -289q29 -29 73 -46t85 -17h237q41 0 85 17.5t73 45.5l283 289q29 29 47 72t18 84v307q0 47 -31.5 78t-76.5 31t-76 -31t-31 -78v-305q-4 -4 -4 -8l-22.5 -22.5t-51.5 -52.5t-66.5 -67.5t-66.5 -67.5t-52.5 -52.5t-21.5 -22.5 q-2 0 -4 -1t-4 -1h-233q-2 0 -4 1t-4 1t-23 21.5t-51.5 53.5t-66.5 67.5t-66.5 67.5t-51 53.5t-22.5 21.5q0 2 -1 4t-1 4v305q0 47 -32 78t-77 31t-75.5 -31t-30.5 -78v-307z" />
<glyph unicode="w" horiz-adv-x="1792" d="M164 346q0 -41 17.5 -84t45.5 -72l127 -127q29 -29 72 -46t84 -17h852q41 0 84 17.5t72 45.5l127 127q29 29 47 72t18 84v469q0 47 -31.5 78t-76.5 31t-76 -31t-31 -78v-465q-2 -4 -2 -6l-2 -4q-2 0 -20.5 -19.5t-41 -42l-41 -41l-20.5 -20.5q-4 0 -5 -1t-5 -1h-314v600 q0 45 -31.5 76t-76.5 31t-76 -31t-31 -76v-600h-315q-2 0 -4 1t-4 1l-20.5 20.5t-42 41t-42 42t-20.5 19.5q0 4 -1 5t-1 5v465q0 47 -32 78t-77 31t-75.5 -31t-30.5 -78v-469z" />
<glyph unicode="x" d="M164 113q0 -45 30.5 -76t75.5 -31h115q41 0 84 17.5t72 46.5l245 245l246 -245q29 -29 72 -46.5t84 -17.5h115q45 0 76.5 31t31.5 76t-31.5 76.5t-76.5 31.5h-113q-2 0 -4 1t-4 1l-20 21q-21 20 -54 54t-77 77t-93 92l244 244q4 4 8 4h113q45 0 76.5 30.5t31.5 75.5 q0 47 -31.5 78t-76.5 31h-115q-41 0 -84 -18.5t-72 -47.5l-20 -20q-21 -19 -54.5 -52.5t-77.5 -78.5t-94 -95q-49 49 -94 94.5t-78.5 79t-53.5 52.5l-19 20q-29 29 -72 47.5t-84 18.5h-115q-45 0 -75.5 -31t-30.5 -78q0 -45 30.5 -75.5t75.5 -30.5h113q4 0 8 -4l244 -244 q-49 -49 -93 -92t-77 -77t-53 -54l-21 -21q-2 0 -4 -1t-4 -1h-113q-45 0 -75.5 -31.5t-30.5 -76.5z" />
<glyph unicode="y" d="M164 315q0 -43 19.5 -87t54.5 -72l120 -103q31 -25 72 -39t80 -14h170v-207q0 -45 30.5 -76.5t75.5 -31.5t76 31.5t31 76.5v207h170q39 0 81 14.5t70 38.5l121 103q35 29 54.5 71.5t19.5 87.5l2 500q0 45 -31.5 77t-76.5 32t-76 -31t-31 -78v-51q0 -45 -1 -120t-1 -146 v-123v-56v-2q-4 -2 -21.5 -17t-39 -32.5t-39.5 -33.5l-17 -15q-8 -4 -16 -4h-549q-8 0 -16 4l-18 15q-17 16 -38.5 33.5t-40 32.5t-20.5 17v2v496q0 47 -32 78t-77 31t-75.5 -31t-30.5 -78v-500z" />
<glyph unicode="z" d="M164 819q0 -45 30.5 -75.5t75.5 -30.5h789q2 0 10 -4l11 -11q10 -12 20 -22q-47 -14 -126 -39t-169 -53.5t-183.5 -58t-169 -53t-122.5 -38.5l-47 -14q-76 -23 -95 -96q-4 -20 -4 -31q0 -51 43 -98l127 -127q29 -29 72 -46.5t84 -17.5h793q45 0 76.5 31t31.5 76 t-31.5 76.5t-76.5 31.5h-789q-4 0 -5 1t-5 1q0 2 -10.5 12.5l-20.5 20.5q47 14 126 38.5t169 53.5t183 58.5t169 53t123 38.5l47 14q35 10 59.5 35.5t34.5 60.5q4 20 5 31q0 55 -43 98l-127 127q-29 29 -72 47.5t-84 18.5h-793q-45 0 -75.5 -31t-30.5 -78z" />
<glyph unicode="~" horiz-adv-x="1529" d="M165 891q-1 -51 36 -88q35 -37 86 -37q53 0 88 35l23 23l49.5 49.5l51 51l25.5 25.5q4 0 13 4h100q8 0 12 -4q2 -2 22.5 -20.5t44 -40t42.5 -39.5l20 -19q35 -33 83 -51t95 -18l134 2q47 0 96 21.5t82 56.5l145 151q35 39 34 90.5t-40 85.5q-37 35 -88 34t-86 -40 l-21 -23q-22 -22 -48.5 -49.5t-48 -51t-23.5 -25.5q-4 0 -9 -4h-127q-4 0 -7 2t-5 2q-2 2 -22.5 20.5t-44 40t-43.5 39.5l-19 19q-35 33 -83 51t-95 18h-107q-47 -2 -95 -21.5t-83 -52.5l-151 -151q-35 -35 -36 -86z" />
<glyph unicode="&#xad;" horiz-adv-x="1105" d="M164 580q0 -45 30.5 -76t75.5 -31h645q45 0 77 31t32 76t-31.5 76.5t-77.5 31.5h-645q-45 0 -75.5 -31.5t-30.5 -76.5z" />
<glyph unicode="&#x2000;" horiz-adv-x="734" />
<glyph unicode="&#x2001;" horiz-adv-x="1468" />
<glyph unicode="&#x2002;" horiz-adv-x="734" />
<glyph unicode="&#x2003;" horiz-adv-x="1468" />
<glyph unicode="&#x2004;" horiz-adv-x="489" />
<glyph unicode="&#x2005;" horiz-adv-x="367" />
<glyph unicode="&#x2006;" horiz-adv-x="244" />
<glyph unicode="&#x2007;" horiz-adv-x="244" />
<glyph unicode="&#x2008;" horiz-adv-x="183" />
<glyph unicode="&#x2009;" horiz-adv-x="293" />
<glyph unicode="&#x200a;" horiz-adv-x="81" />
<glyph unicode="&#x2010;" horiz-adv-x="1105" d="M164 580q0 -45 30.5 -76t75.5 -31h645q45 0 77 31t32 76t-31.5 76.5t-77.5 31.5h-645q-45 0 -75.5 -31.5t-30.5 -76.5z" />
<glyph unicode="&#x2011;" horiz-adv-x="1105" d="M164 580q0 -45 30.5 -76t75.5 -31h645q45 0 77 31t32 76t-31.5 76.5t-77.5 31.5h-645q-45 0 -75.5 -31.5t-30.5 -76.5z" />
<glyph unicode="&#x2012;" horiz-adv-x="1105" d="M164 580q0 -45 30.5 -76t75.5 -31h645q45 0 77 31t32 76t-31.5 76.5t-77.5 31.5h-645q-45 0 -75.5 -31.5t-30.5 -76.5z" />
<glyph unicode="&#x2013;" horiz-adv-x="1269" d="M164 580q0 -45 36.5 -76t89.5 -31h768q54 0 92 31t38 76t-37.5 76.5t-92.5 31.5h-768q-53 0 -89.5 -31.5t-36.5 -76.5z" />
<glyph unicode="&#x2014;" horiz-adv-x="2293" d="M164 580q0 -45 72.5 -76t179.5 -31h1536q108 0 184 31t76 76t-75 76.5t-185 31.5h-1536q-107 0 -179.5 -31.5t-72.5 -76.5z" />
<glyph unicode="&#x202f;" horiz-adv-x="293" />
<glyph unicode="&#x205f;" horiz-adv-x="367" />
<glyph unicode="&#x25fc;" horiz-adv-x="931" d="M0 0v932h932v-932h-932z" />
</font>
</defs>
</svg>
